<?xml version="1.0" standalone="no"?>
<!DOCTYPE svg PUBLIC "-//W3C//DTD SVG 20010904//EN"
 "http://www.w3.org/TR/2001/REC-SVG-20010904/DTD/svg10.dtd">
<svg version="1.0" xmlns="http://www.w3.org/2000/svg"
 width="100.000000pt" height="100.000000pt" viewBox="0 0 100.000000 100.000000"
 preserveAspectRatio="xMidYMid meet">
<metadata>
Created by potrace 1.16, written by Peter Selinger 2001-2019
</metadata>
<g transform="translate(0.000000,100.000000) scale(0.100000,-0.100000)"
fill="#000000" stroke="none">
<path d="M412 968 c-7 -7 -12 -28 -12 -48 0 -45 15 -60 60 -60 20 0 41 5 48
12 16 16 16 80 0 96 -16 16 -80 16 -96 0z"/>
<path d="M695 970 c-38 -16 -79 -70 -134 -182 -72 -146 -82 -149 -144 -40 -61
105 -93 132 -159 132 -44 0 -54 -4 -84 -34 -30 -30 -34 -40 -34 -85 0 -64 24
-92 130 -154 122 -71 106 -107 -47 -107 -86 0 -96 -2 -118 -25 -35 -34 -35
-96 1 -132 25 -25 27 -25 125 -18 114 8 118 4 64 -56 -30 -34 -35 -46 -35 -90
0 -45 4 -55 34 -85 30 -30 40 -34 89 -34 90 0 123 37 138 153 11 86 34 117 88
117 30 0 43 -8 86 -55 50 -53 53 -55 104 -55 47 0 57 4 87 34 30 30 34 40 34
86 0 46 -4 56 -34 86 -24 24 -43 34 -65 34 -51 0 -99 25 -107 56 -13 51 6 76
83 115 116 57 143 91 143 182 0 99 -70 167 -169 166 -31 0 -65 -4 -76 -9z"/>
<path d="M872 608 c-7 -7 -12 -28 -12 -48 0 -45 15 -60 60 -60 45 0 60 15 60
60 0 45 -15 60 -60 60 -20 0 -41 -5 -48 -12z"/>
<path d="M37 142 c-23 -25 -22 -85 1 -105 25 -23 85 -22 105 1 23 25 22 85 -1
105 -25 23 -85 22 -105 -1z"/>
<path d="M612 148 c-7 -7 -12 -28 -12 -48 0 -20 5 -41 12 -48 16 -16 80 -16
96 0 16 16 16 80 0 96 -16 16 -80 16 -96 0z"/>
</g>
</svg>
