<?xml version="1.0" standalone="no"?>
<!DOCTYPE svg PUBLIC "-//W3C//DTD SVG 20010904//EN"
 "http://www.w3.org/TR/2001/REC-SVG-20010904/DTD/svg10.dtd">
<svg version="1.0" xmlns="http://www.w3.org/2000/svg"
 width="64.000000pt" height="64.000000pt" viewBox="0 0 64.000000 64.000000"
 preserveAspectRatio="xMidYMid meet">
<metadata>
Created by potrace 1.16, written by Peter Selinger 2001-2019
</metadata>
<g transform="translate(0.000000,64.000000) scale(0.100000,-0.100000)"
fill="#000000" stroke="none">
<path d="M200 610 c0 -5 -11 -10 -25 -10 -18 0 -25 -5 -25 -20 0 -18 -7 -20
-65 -20 l-65 0 0 -270 0 -270 230 0 230 0 0 75 c0 71 1 75 23 75 29 0 74 31
98 66 26 39 26 129 0 168 -24 35 -69 66 -98 66 -20 0 -23 5 -23 45 l0 45 -65
0 c-58 0 -65 2 -65 20 0 15 -7 20 -25 20 -14 0 -25 5 -25 10 0 6 -22 10 -50
10 -27 0 -50 -4 -50 -10z m80 -55 c0 -43 -1 -45 -30 -45 -29 0 -30 2 -30 45 0
43 1 45 30 45 29 0 30 -2 30 -45z m-80 15 c0 -5 -7 -10 -16 -10 -8 0 -12 5 -9
10 3 6 10 10 16 10 5 0 9 -4 9 -10z m125 0 c3 -5 -1 -10 -9 -10 -9 0 -16 5
-16 10 0 6 4 10 9 10 6 0 13 -4 16 -10z m-125 -40 c0 -6 -30 -10 -70 -10 l-70
0 0 -230 0 -230 190 0 190 0 0 55 c0 32 4 55 10 55 7 0 10 -24 8 -62 l-3 -63
-205 0 -205 0 -3 235 c-1 129 0 240 2 247 6 16 156 18 156 3z m258 -27 c2 -19
-1 -33 -7 -33 -6 0 -11 11 -11 25 0 24 -2 25 -70 25 -42 0 -70 4 -70 10 0 7
29 10 78 8 l77 -3 3 -32z m-40 -24 c-2 -5 -18 -19 -36 -30 l-32 -21 0 21 c0
20 -5 21 -100 21 l-100 0 0 -100 0 -100 84 0 c47 0 88 -4 91 -10 4 -6 -22 -10
-69 -10 -44 0 -76 -4 -76 -10 0 -6 35 -10 85 -10 50 0 85 -4 85 -10 0 -6 -35
-10 -85 -10 -54 0 -85 -4 -85 -11 0 -7 33 -10 98 -8 121 3 142 -6 142 -61 l0
-40 -170 0 -170 0 0 200 0 200 171 0 c115 0 170 -3 167 -11z m-198 -79 c0 -49
1 -50 30 -50 29 0 30 1 30 50 0 43 3 50 19 50 29 0 32 -11 25 -90 l-7 -71 -71
3 -71 3 -3 64 c-4 76 1 91 28 91 17 0 20 -6 20 -50z m40 20 c0 -16 -4 -30 -10
-30 -5 0 -10 14 -10 30 0 17 5 30 10 30 6 0 10 -13 10 -30z m296 -16 c29 -30
34 -43 34 -84 0 -43 -5 -54 -35 -85 -31 -31 -42 -35 -85 -35 -43 0 -54 4 -85
35 -31 32 -35 42 -35 87 0 45 4 54 36 84 31 29 42 34 86 34 45 0 54 -4 84 -36z"/>
<path d="M140 240 c0 -5 5 -10 10 -10 6 0 10 5 10 10 0 6 -4 10 -10 10 -5 0
-10 -4 -10 -10z"/>
<path d="M140 200 c0 -5 5 -10 10 -10 6 0 10 5 10 10 0 6 -4 10 -10 10 -5 0
-10 -4 -10 -10z"/>
<path d="M140 160 c0 -5 5 -10 10 -10 6 0 10 5 10 10 0 6 -4 10 -10 10 -5 0
-10 -4 -10 -10z"/>
<path d="M180 160 c0 -6 37 -10 90 -10 53 0 90 4 90 10 0 6 -37 10 -90 10 -53
0 -90 -4 -90 -10z"/>
<path d="M140 120 c0 -5 5 -10 10 -10 6 0 10 5 10 10 0 6 -4 10 -10 10 -5 0
-10 -4 -10 -10z"/>
<path d="M180 120 c0 -6 37 -10 90 -10 53 0 90 4 90 10 0 6 -37 10 -90 10 -53
0 -90 -4 -90 -10z"/>
<path d="M440 360 l0 -70 30 0 30 0 0 70 0 70 -30 0 -30 0 0 -70z m40 0 c0
-22 -4 -40 -10 -40 -5 0 -10 18 -10 40 0 22 5 40 10 40 6 0 10 -18 10 -40z"/>
<path d="M440 240 c0 -27 3 -30 30 -30 27 0 30 3 30 30 0 27 -3 30 -30 30 -27
0 -30 -3 -30 -30z"/>
</g>
</svg>
